<svg width="121" height="48" viewBox="0 0 121 48" fill="none" xmlns="http://www.w3.org/2000/svg">
<mask id="mask0_10_479" style="mask-type:luminance" maskUnits="userSpaceOnUse" x="21" y="22" width="26" height="26">
<path d="M21.9991 22.1578H46.2326V47.3481H21.9991V22.1578Z" fill="white"/>
</mask>
<g mask="url(#mask0_10_479)">
<mask id="mask1_10_479" style="mask-type:luminance" maskUnits="userSpaceOnUse" x="14" y="16" width="39" height="39">
<path d="M33.8817 16.2145L52.5599 33.6705L32.9201 54.1671L14.2418 36.7061L33.8817 16.2145Z" fill="white"/>
</mask>
<g mask="url(#mask1_10_479)">
<mask id="mask2_10_479" style="mask-type:luminance" maskUnits="userSpaceOnUse" x="14" y="16" width="39" height="39">
<path d="M33.8817 16.2145L52.5599 33.6705L32.9201 54.1671L14.2418 36.7061L33.8817 16.2145Z" fill="white"/>
</mask>
<g mask="url(#mask2_10_479)">
<mask id="mask3_10_479" style="mask-type:luminance" maskUnits="userSpaceOnUse" x="14" y="16" width="39" height="39">
<path d="M33.8967 16.2245L52.4404 33.5624L32.6162 54.246L14.0675 36.908L33.8967 16.2245Z" fill="white"/>
</mask>
<g mask="url(#mask3_10_479)">
<mask id="mask4_10_479" style="mask-type:luminance" maskUnits="userSpaceOnUse" x="14" y="16" width="39" height="39">
<path d="M33.8965 16.2245L52.4403 33.5575L32.6609 54.1919L14.1172 36.8588L33.8965 16.2245Z" fill="white"/>
</mask>
<g mask="url(#mask4_10_479)">
<path fill-rule="evenodd" clip-rule="evenodd" d="M24.3457 46.4182L22.4326 44.6322C22.3379 44.5437 22.2881 44.4157 22.2881 44.2878C22.2931 44.1599 22.3529 44.0369 22.4525 43.9533C23.0454 43.4514 23.6283 42.9644 24.2461 42.4527C25.0383 41.7934 25.8553 41.1144 26.7073 40.3863C26.8119 40.2977 26.9166 40.1944 27.0262 40.0862C27.0859 40.0321 27.1457 39.9681 27.2105 39.9091C27.2205 39.8992 27.2504 39.8746 27.2852 39.8353C27.2952 39.8254 27.3052 39.8156 27.3151 39.8057C27.2504 39.7516 27.1308 39.6581 26.9564 39.545C26.9464 39.5401 26.9415 39.5351 26.9315 39.5302L22.8112 36.5832C22.6767 36.4897 22.6069 36.3322 22.6219 36.1699C22.6368 36.0075 22.7415 35.8648 22.8909 35.796L22.9657 35.7615C23.5137 35.4712 23.9422 35.2351 24.2013 35.0924C24.2561 35.0629 24.3059 35.0383 24.3408 35.0137C24.4703 34.9448 24.5749 34.871 24.6397 34.8169C24.6546 34.8071 24.6696 34.7972 24.6795 34.7874C24.6795 34.7628 24.6795 34.7136 24.6596 34.6201L24.6546 34.6152C24.4255 33.6066 24.3657 32.5734 24.3009 31.5796C24.261 30.8711 24.2162 30.138 24.1116 29.4344C23.987 28.6177 23.8973 27.7715 23.8475 26.9203C23.8375 26.7678 23.9023 26.6251 24.0219 26.5317C24.1415 26.4382 24.3009 26.4087 24.4454 26.4529C24.8689 26.5809 25.1827 26.6891 25.4119 26.7826L25.4169 26.7875C25.4568 26.8023 25.5514 26.8416 25.681 26.8711L25.7308 26.8859C25.7657 26.8908 25.8005 26.9007 25.8254 26.9056C25.8653 26.8761 25.9201 26.7973 25.955 26.7531C25.9899 26.7088 25.9998 26.6842 26.0795 26.5366C26.0945 26.5021 26.1194 26.4579 26.1443 26.4087C26.1842 26.3349 26.224 26.2562 26.2639 26.1824C26.3037 26.1086 26.3436 26.0348 26.3835 25.961C26.5329 25.6658 27.0311 24.7752 27.8931 23.2353C27.9728 23.0975 28.1173 23.0041 28.2767 22.9991C28.4411 22.9942 28.5906 23.068 28.6852 23.2009L29.6119 24.5588C30.0653 25.2033 30.3294 25.587 30.4439 25.7642C30.4988 25.8576 30.5237 25.8872 30.6084 25.9905C30.6532 26.0446 30.6781 26.0692 30.6881 26.079C30.6931 26.084 30.698 26.084 30.698 26.084C30.723 26.0741 30.7628 26.0495 30.8326 26.0151C31.0219 25.9068 31.1066 25.8527 31.1066 25.8527C31.2262 25.7789 31.3407 25.71 31.4553 25.6412C31.5201 25.6018 31.5849 25.5624 31.6447 25.5231C31.824 25.4148 32.0034 25.3066 32.1927 25.1984C32.3372 25.1147 32.5215 25.1196 32.666 25.2082C32.8105 25.2918 32.8952 25.4542 32.8852 25.6215C32.7806 27.5452 32.7158 28.6571 32.6909 29.0113V29.0163C32.676 29.1835 32.666 29.3508 32.661 29.5181C32.661 29.5722 32.656 29.6214 32.6511 29.6706C32.6461 29.769 32.6361 29.8576 32.6511 29.956C32.656 29.9658 32.656 29.9756 32.656 29.9855C32.676 29.9756 32.6909 29.9609 32.7009 29.9461C32.8852 29.7641 32.9649 29.6509 32.9749 29.6362C32.9749 29.6312 32.9749 29.6312 32.9799 29.6263C33.6674 28.603 34.2852 27.6682 34.8183 26.8367L34.8432 26.7973C34.9778 26.5809 35.2318 26.1873 35.5856 25.6559C35.8995 25.1738 36.2283 24.6965 36.5521 24.2291C36.6518 24.0815 36.8212 24.0077 36.9955 24.0323C37.1699 24.0569 37.3194 24.175 37.3742 24.3423C37.6283 25.1 37.7777 25.5575 37.8276 25.7445H37.8326C37.8575 25.833 37.8824 25.9216 37.9173 26.0102C37.9571 26.1036 37.9671 26.143 37.987 26.1725C38.0318 26.2611 38.0667 26.3152 38.1165 26.3447C38.1464 26.3595 38.1813 26.3644 38.2212 26.3595C38.2461 26.3595 38.271 26.3545 38.2959 26.3447C38.3009 26.3447 38.3059 26.3398 38.3108 26.3398C38.7493 26.1922 39.1927 26.0397 39.6361 25.8822C40.6475 25.528 41.6738 25.1639 42.6852 24.7949C42.8546 24.7359 43.039 24.7703 43.1685 24.8933C43.293 25.0114 43.3429 25.1934 43.293 25.3607C42.9742 26.3791 42.6603 27.4123 42.3564 28.4308C42.2269 28.8736 42.0973 29.3213 41.9678 29.7592C41.9678 29.7641 41.9678 29.7739 41.9628 29.7788C41.9578 29.7985 41.9528 29.8231 41.9528 29.8477C41.9528 29.892 41.9628 29.9264 41.9777 29.951C42.0076 30.0002 42.0674 30.0347 42.1571 30.074C42.187 30.0888 42.2269 30.0986 42.3265 30.1282C42.4162 30.1577 42.5059 30.1823 42.5955 30.202H42.6005C42.7898 30.2462 43.2632 30.3643 44.0404 30.5759C44.2148 30.6202 44.3393 30.7579 44.3742 30.9301C44.4091 31.0974 44.3443 31.2745 44.2048 31.3828C43.7464 31.7271 43.2781 32.0715 42.8098 32.411C42.2966 32.7849 41.908 33.0605 41.6987 33.2031L41.6639 33.2327C40.8518 33.8034 39.935 34.4627 38.9386 35.1957C38.9336 35.2006 38.9336 35.2006 38.9336 35.2056C38.9187 35.2154 38.8041 35.299 38.6297 35.4909C38.6197 35.5008 38.6048 35.5155 38.5948 35.5352C38.6048 35.5352 38.6148 35.5401 38.6247 35.5401C38.7293 35.545 38.814 35.5352 38.9137 35.5204C38.9635 35.5155 39.0133 35.5106 39.0632 35.5057C39.2375 35.4909 39.4069 35.4712 39.5713 35.4516H39.5763C39.935 35.4024 41.0511 35.2794 42.9941 35.0678C43.1635 35.053 43.3279 35.1268 43.4276 35.2646C43.5222 35.4024 43.5372 35.5844 43.4575 35.732C43.3628 35.919 43.2632 36.1059 43.1635 36.288C43.1286 36.3519 43.0888 36.4159 43.0539 36.4798C42.9891 36.5979 42.9244 36.716 42.8546 36.8341C42.8546 36.8341 42.8048 36.9276 42.7101 37.1194C42.6753 37.1883 42.6553 37.2277 42.6454 37.2523C42.6503 37.2523 42.6503 37.2572 42.6503 37.2621C42.6603 37.272 42.6902 37.2966 42.745 37.3359C42.8546 37.4146 42.8895 37.4392 42.9841 37.4884C43.1735 37.5868 43.572 37.8279 44.2496 38.2412L45.6745 39.0825C45.8091 39.1612 45.8987 39.3088 45.8987 39.4712C45.8987 39.6286 45.819 39.7762 45.6795 39.8648C44.1749 40.7996 43.298 41.3358 43.0091 41.5031C42.9343 41.5425 42.8646 41.5868 42.7898 41.631C42.7151 41.6753 42.6454 41.7196 42.5706 41.759C42.5208 41.7885 42.476 41.8131 42.4411 41.8328C42.2966 41.9164 42.2767 41.9312 42.2318 41.9656C42.187 42.005 42.1123 42.064 42.0824 42.1034C42.0874 42.128 42.1023 42.1624 42.1123 42.1968L42.1272 42.246C42.1621 42.374 42.2069 42.4625 42.2269 42.5019L42.2318 42.5068C42.3365 42.7233 42.466 43.0332 42.6155 43.4416C42.6703 43.5793 42.6454 43.7368 42.5607 43.8598C42.471 43.9828 42.3315 44.0566 42.177 44.0566C41.3151 44.0517 40.4582 44.0074 39.6212 43.9336C38.9037 43.8696 38.1614 43.8647 37.4439 43.8598C36.4326 43.8549 35.3863 43.8499 34.355 43.6777H34.35C34.2503 43.663 34.2005 43.663 34.1756 43.6679C34.1706 43.6777 34.1607 43.6925 34.1507 43.7023C34.1009 43.7712 34.0311 43.8795 33.9664 44.0123C33.9464 44.0517 33.9215 44.1009 33.8916 44.155C33.7671 44.4157 33.5528 44.8536 33.2838 45.4096L33.2539 45.4834C33.1941 45.6359 33.0546 45.7441 32.8952 45.7687C32.7308 45.7933 32.5664 45.7343 32.4617 45.6064L29.2582 41.7048C29.2482 41.6999 29.2432 41.6901 29.2383 41.6852C29.1187 41.5179 29.019 41.4047 28.9593 41.3457C28.9493 41.3555 28.9393 41.3654 28.9294 41.3752C28.8945 41.4096 28.8696 41.4441 28.8596 41.4539C28.7998 41.5179 28.745 41.5818 28.6902 41.6458C28.5856 41.759 28.4909 41.8672 28.4012 41.9754C27.7187 42.8561 27.071 43.6974 26.4532 44.5141C25.9649 45.1537 25.5066 45.754 25.0333 46.364C24.9536 46.4674 24.834 46.5313 24.7045 46.5461C24.5699 46.5559 24.4404 46.5116 24.3457 46.4182ZM23.4489 44.3173L24.6098 45.4047C24.9735 44.9323 25.3322 44.46 25.7109 43.9631C26.3336 43.1464 26.9763 42.3002 27.6689 41.4146C27.7735 41.2817 27.8881 41.1538 27.9977 41.0357C28.0525 40.9718 28.1023 40.9176 28.1521 40.8586C28.1721 40.8389 28.2069 40.7996 28.2518 40.7504C28.3215 40.6716 28.3614 40.6323 28.4162 40.5929C28.5457 40.4945 28.7151 40.4306 28.8895 40.4158C28.9842 40.406 29.0888 40.4109 29.1835 40.4355C29.2034 40.4404 29.2731 40.4601 29.3528 40.4945C29.5173 40.5732 29.7315 40.7897 29.9856 41.139L32.7158 44.46C32.8603 44.1648 32.9749 43.9237 33.0596 43.7565C33.0845 43.6974 33.1094 43.6531 33.1294 43.6138C33.224 43.4219 33.3237 43.2694 33.3934 43.171C33.4482 43.0972 33.4881 43.0382 33.5479 42.984C33.777 42.7774 34.0959 42.7036 34.5044 42.7725H34.5094C35.466 42.9348 36.4276 42.9398 37.4489 42.9447C38.1863 42.9496 38.9486 42.9496 39.7059 43.0185C40.2938 43.0726 40.8916 43.107 41.4945 43.1267C41.4596 43.0431 41.4247 42.9693 41.3948 42.9053C41.3649 42.8463 41.2952 42.7036 41.2354 42.5068L41.2204 42.4576C41.1756 42.3051 41.1358 42.1722 41.1507 42.0148C41.1906 41.631 41.4696 41.3998 41.639 41.262C41.7436 41.1735 41.8183 41.1341 41.9777 41.0406C42.0126 41.021 42.0525 40.9964 42.1023 40.9718C42.172 40.9275 42.2368 40.8881 42.3116 40.8438C42.3863 40.7996 42.461 40.7553 42.5407 40.711C42.7749 40.5732 43.4525 40.1649 44.5486 39.4859L43.7713 39.0235H43.7664C43.1137 38.6249 42.7151 38.3839 42.5407 38.2953C42.3913 38.2166 42.3165 38.1575 42.2019 38.0739C42.0425 37.9607 41.9528 37.882 41.8881 37.7836C41.7187 37.5426 41.7137 37.2916 41.7187 37.1932C41.7237 37.0309 41.7785 36.9128 41.8781 36.716C41.9827 36.4995 42.0425 36.3962 42.0475 36.3864C42.1073 36.283 42.1671 36.1797 42.2219 36.0764C40.8368 36.224 39.9898 36.3224 39.7009 36.3568H39.6959C39.5165 36.3814 39.3322 36.4011 39.1479 36.4208C39.113 36.4208 39.0731 36.4257 39.0333 36.4306C38.9087 36.4503 38.7493 36.47 38.55 36.4503C38.3358 36.4356 38.1863 36.3913 38.0568 36.3076C37.997 36.2683 37.6731 36.042 37.6482 35.6238C37.6333 35.427 37.698 35.2744 37.7279 35.2006C37.8027 35.0235 37.9073 34.9153 37.9471 34.871C38.1863 34.6152 38.3457 34.4922 38.3856 34.4627C39.387 33.7247 40.3087 33.0605 41.1258 32.4848L41.1607 32.4602C41.3699 32.3126 41.7535 32.042 42.2617 31.673C42.471 31.5205 42.6802 31.3729 42.8845 31.2204C42.6503 31.1564 42.4859 31.1171 42.3962 31.0974C42.2817 31.0728 42.1671 31.0384 42.0525 31.0039C41.9329 30.9695 41.8582 30.9449 41.7735 30.9055C41.639 30.8465 41.355 30.7186 41.1756 30.4135C41.1059 30.3004 41.0261 30.1085 41.0261 29.8526C41.0261 29.7346 41.0411 29.6165 41.0809 29.5033C41.2055 29.0655 41.335 28.6177 41.4696 28.1749C41.6838 27.4419 41.908 26.7088 42.1322 25.9708C41.4048 26.2365 40.6674 26.4972 39.945 26.7481C39.5016 26.9007 39.0582 27.0532 38.6197 27.2057C38.5101 27.2451 38.3906 27.2697 38.271 27.2795C38.0119 27.2893 37.8176 27.2205 37.6931 27.1614C37.3742 26.9991 37.2347 26.7285 37.1649 26.6005C37.1201 26.5169 37.0902 26.4431 37.0503 26.3299C37.0055 26.2168 36.9706 26.1086 36.9358 25.9954C36.9108 25.9068 36.861 25.7494 36.7863 25.5182C36.6418 25.7297 36.5023 25.9462 36.3628 26.1578C36.014 26.6842 35.7649 27.0729 35.6304 27.2844L35.6005 27.3238C35.0674 28.1602 34.4447 29.1048 33.7571 30.1331C33.7272 30.1724 33.6126 30.3397 33.3635 30.5857C33.3237 30.63 33.219 30.7382 33.0447 30.8219C32.9749 30.8563 32.8254 30.9252 32.6212 30.9252C32.1927 30.9252 31.9486 30.6202 31.9037 30.5562C31.8141 30.4381 31.7642 30.2905 31.7343 30.0839C31.7044 29.8822 31.7194 29.7296 31.7294 29.6017C31.7294 29.5624 31.7343 29.523 31.7343 29.4886C31.7393 29.3065 31.7493 29.1245 31.7642 28.9474V28.9425C31.7891 28.6522 31.839 27.8158 31.9137 26.4382C31.8141 26.5021 31.7094 26.5661 31.6048 26.6251C31.5948 26.635 31.4952 26.694 31.2859 26.8121C31.0916 26.9203 30.9721 26.9843 30.8076 26.9991C30.713 27.0089 30.4589 27.0138 30.2048 26.8613C30.1052 26.8023 30.0155 26.7186 29.8909 26.571C29.8012 26.4579 29.7415 26.389 29.6518 26.2463C29.5521 26.084 29.2881 25.7002 28.8496 25.0803C28.8496 25.0754 28.8447 25.0754 28.8447 25.0754L28.3415 24.3324C27.7137 25.4542 27.3351 26.1381 27.2105 26.3791C27.1706 26.4579 27.1258 26.5366 27.0859 26.6153C27.0461 26.6891 27.0062 26.758 26.9714 26.8269C26.9464 26.8761 26.9265 26.9154 26.9066 26.9499C26.8219 27.1171 26.787 27.1909 26.7023 27.2992C26.5728 27.4714 26.3536 27.7617 25.9699 27.8207C25.8055 27.8453 25.671 27.8109 25.5166 27.7764L25.4667 27.7617C25.2625 27.7174 25.113 27.6534 25.0532 27.6288C24.9884 27.5993 24.9087 27.5698 24.824 27.5403C24.8738 28.1356 24.9436 28.726 25.0283 29.3016C25.1429 30.0445 25.1877 30.7973 25.2326 31.5205C25.2924 32.5291 25.3472 33.4787 25.5614 34.4085L25.5664 34.4135C25.6561 34.812 25.6012 35.1367 25.402 35.3679C25.3521 35.4319 25.2973 35.4762 25.2226 35.5303C25.1279 35.609 24.9785 35.7172 24.7892 35.8206C24.7543 35.8402 24.7045 35.8648 24.6496 35.8944C24.4852 35.9878 24.2511 36.1158 23.9571 36.2732L27.4696 38.7824C27.8333 39.0136 28.0625 39.2153 28.1521 39.3728C28.192 39.4466 28.2119 39.5155 28.2219 39.5351C28.2468 39.6286 28.2617 39.727 28.2568 39.8254C28.2518 39.9976 28.197 40.1649 28.1023 40.3027C28.0674 40.3568 28.0276 40.3961 27.9578 40.4699C27.908 40.5191 27.8681 40.5536 27.8482 40.5732C27.7934 40.6274 27.7386 40.6815 27.6788 40.7405C27.5642 40.8537 27.4447 40.9718 27.3101 41.08C26.4582 41.8082 25.6361 42.492 24.844 43.1513C24.3657 43.5498 23.9073 43.9336 23.4489 44.3173Z" fill="#D49B66"/>
</g>
</g>
</g>
</g>
</g>
<path d="M2.79643 0.951533C2.75657 0.951533 2.70675 0.981052 2.65692 1.03025C2.60212 1.06961 2.54732 1.14341 2.49749 1.24673C2.45764 1.35497 2.41778 1.51241 2.37792 1.71905C2.33806 1.91585 2.31814 2.18644 2.31814 2.52592V13.3498C2.31814 13.6795 2.33806 13.9501 2.37792 14.1567C2.41778 14.3683 2.45764 14.5257 2.49749 14.629C2.54732 14.7373 2.60212 14.816 2.65692 14.8652C2.70675 14.9046 2.75657 14.9242 2.79643 14.9242V15.1014H0.365112V14.9242C0.390023 14.9242 0.429881 14.9046 0.484685 14.8652C0.534508 14.816 0.589311 14.7373 0.644116 14.629C0.693938 14.5257 0.74376 14.3683 0.783617 14.1567C0.823475 13.9501 0.843404 13.6795 0.843404 13.3498V2.52592C0.843404 2.18644 0.823475 1.91585 0.783617 1.71905C0.74376 1.51241 0.693938 1.35497 0.644116 1.24673C0.589311 1.14341 0.534508 1.06961 0.484685 1.03025C0.429881 0.981052 0.390023 0.951533 0.365112 0.951533V0.774414H2.79643V0.951533Z" fill="#794819"/>
<path d="M3.94226 5.26134H5.8355V10.5552C5.92518 9.92546 6.03977 9.36459 6.17429 8.86275C6.31877 8.35107 6.48318 7.89844 6.67251 7.50484C6.80204 7.21948 6.95649 6.94397 7.13087 6.67829C7.31521 6.40277 7.52945 6.15677 7.76859 5.93045C8.00774 5.70905 8.26681 5.53194 8.54581 5.3991C8.83478 5.25642 9.15364 5.18262 9.5024 5.18262C10.0604 5.18262 10.5088 5.3007 10.8576 5.53685C11.2163 5.76317 11.4953 6.05837 11.6946 6.42245C11.8939 6.79145 12.0334 7.20964 12.1131 7.68196C12.1928 8.14444 12.2326 8.60199 12.2326 9.05955V13.3498C12.2326 13.6942 12.2426 13.9697 12.2725 14.1763C12.3124 14.3731 12.3572 14.5306 12.412 14.6486C12.4618 14.7569 12.5166 14.8257 12.5714 14.8651C12.6362 14.9045 12.681 14.9241 12.7109 14.9241V15.1013H10.2995V14.9241C10.3245 14.9241 10.3643 14.9045 10.4191 14.8651C10.4839 14.8257 10.5387 14.7569 10.5786 14.6486C10.6284 14.5306 10.6782 14.3731 10.7181 14.1763C10.7579 13.9697 10.7778 13.6942 10.7778 13.3498V9.05955C10.7778 8.81355 10.7629 8.51835 10.738 8.17396C10.7081 7.81972 10.6483 7.48024 10.5586 7.1506C10.4789 6.82589 10.3494 6.52085 10.18 6.24533C10.0056 5.96981 9.77143 5.78777 9.48247 5.69429C9.18852 5.60573 8.90453 5.61065 8.62553 5.71397C8.35649 5.80745 8.10738 5.95997 7.86823 6.16661C7.63905 6.36341 7.43478 6.59465 7.25044 6.85541C7.07606 7.12108 6.93656 7.36216 6.83194 7.58356C6.52304 8.24284 6.27891 9.03987 6.09457 9.9845C5.92019 10.9291 5.8355 12.0509 5.8355 13.3498C5.8355 13.6942 5.85543 13.9697 5.89528 14.1763C5.93514 14.3731 5.97998 14.5306 6.03479 14.6486C6.08461 14.7569 6.13941 14.8257 6.19422 14.8651C6.24404 14.9045 6.2839 14.9241 6.31379 14.9241V15.1013H3.94226V14.9241C3.96717 14.9241 4.00703 14.9045 4.06183 14.8651C4.11165 14.8257 4.16646 14.7569 4.22126 14.6486C4.27109 14.5306 4.32091 14.3731 4.36077 14.1763C4.40062 13.9697 4.42055 13.6942 4.42055 13.3498V7.01284C4.42055 6.68813 4.40062 6.41753 4.36077 6.20597C4.32091 5.99933 4.27109 5.84189 4.22126 5.73365C4.16646 5.63033 4.11165 5.55653 4.06183 5.51717C4.00703 5.46797 3.96717 5.43846 3.94226 5.43846V5.26134Z" fill="#794819"/>
<path d="M22.1235 9.59097C22.0288 10.2748 21.8893 10.8997 21.705 11.4606C21.5306 12.0264 21.3263 12.5233 21.0872 12.9562C20.6487 13.7434 20.1406 14.324 19.5726 14.6881L19.3334 14.8455C18.9747 15.0423 18.5961 15.1653 18.1975 15.2194C17.7989 15.2686 17.4004 15.2637 17.0018 15.1997C16.2843 15.0816 15.6915 14.8553 15.2281 14.5109C14.7598 14.1715 14.411 13.7631 14.1719 13.2908C13.9327 12.8086 13.7932 12.2822 13.7534 11.7164C13.7135 11.1408 13.7584 10.5651 13.8929 9.98456C14.0374 9.40893 14.2516 8.85297 14.5306 8.31178C14.8196 7.76074 15.1733 7.27858 15.5868 6.85547C16.105 6.34379 16.7028 5.93051 17.3804 5.61563C18.068 5.29092 18.8352 5.13348 19.6722 5.14332C20.031 5.13348 20.4096 5.163 20.8082 5.24172C21.2167 5.3106 21.6552 5.43852 22.1235 5.63531V2.09294C22.0687 1.7387 21.9939 1.51238 21.9043 1.40414C21.8096 1.30082 21.7349 1.2467 21.685 1.2467L21.6253 1.06959L23.5783 0.341431V13.3301C23.5783 13.6745 23.5882 13.9501 23.6181 14.1567C23.658 14.3535 23.7028 14.5109 23.7576 14.629C23.8075 14.7373 23.8623 14.8061 23.9171 14.8455C23.9669 14.8848 24.0068 14.9045 24.0366 14.9045V15.0816H22.1235V9.59097ZM22.1235 5.79275C21.2566 5.45328 20.4345 5.28108 19.6523 5.28108C18.9199 5.3106 18.2872 5.49755 17.7591 5.85179C17.226 6.20603 16.7826 6.69311 16.4238 7.3081C16.1698 7.75582 15.9705 8.30193 15.826 8.94153C15.6765 9.57129 15.6068 10.2158 15.6068 10.8702C15.6068 11.5147 15.6915 12.1395 15.8658 12.7397C16.0502 13.3301 16.3342 13.8172 16.7228 14.1961C17.0815 14.5503 17.4701 14.7815 17.8986 14.8848C18.337 14.9931 18.7854 14.9242 19.2537 14.6881C19.5327 14.5454 19.7769 14.3683 19.9911 14.1567C20.2004 13.9501 20.3947 13.7041 20.569 13.4285C20.9278 12.9316 21.2117 12.3658 21.426 11.7361C21.6352 11.1063 21.8046 10.4716 21.9242 9.82712C21.974 9.56637 22.0139 9.27609 22.0438 8.96121C22.0836 8.54301 22.1036 8.09038 22.1036 7.6033H22.1235V5.79275Z" fill="#794819"/>
<path d="M25.2533 11.4801C25.0789 10.8258 25.039 10.1714 25.1337 9.51216C25.2234 8.85781 25.4326 8.25265 25.7515 7.70162C26.0803 7.15058 26.5088 6.67334 27.0269 6.26499C27.555 5.86155 28.1629 5.56635 28.8405 5.37939C29.5579 5.19735 30.2405 5.15799 30.8931 5.26131C31.5558 5.35479 32.1536 5.55159 32.6867 5.85171C33.2298 6.15675 33.6931 6.5405 34.0817 7.01282C34.4654 7.4753 34.7444 7.97221 34.9187 8.50849C34.4106 8.50849 33.8725 8.52817 33.3045 8.56753C32.7316 8.60689 32.2134 8.68561 31.7501 8.80369C32.1337 8.79385 32.4874 8.85781 32.8063 9.00049C33.1351 9.13333 33.4141 9.3252 33.6433 9.5712C33.8824 9.82212 34.0668 10.1124 34.2013 10.4371C34.3458 10.752 34.4305 11.0866 34.4604 11.4408C34.5102 12.1788 34.3508 12.8135 33.9821 13.3497C33.6234 13.8909 33.1451 14.314 32.5472 14.6289C31.9494 14.934 31.2768 15.1012 30.5344 15.1406C29.7871 15.1898 29.0647 15.1012 28.3622 14.8651C27.6696 14.6191 27.0369 14.2157 26.4689 13.6646C25.9109 13.1136 25.5024 12.3854 25.2533 11.4801ZM26.4689 10.0238C26.5188 10.4174 26.5885 10.7864 26.6682 11.1259C26.9173 12.1001 27.3109 12.8676 27.844 13.4285C28.3871 13.9795 28.97 14.3632 29.5978 14.5699C30.2355 14.7814 30.8632 14.8257 31.491 14.7076C32.1287 14.5896 32.6768 14.3534 33.1451 13.9992C33.6234 13.6449 33.9671 13.1923 34.1814 12.6413C34.3906 12.0902 34.3906 11.4752 34.1814 10.7914C34.0718 10.4273 33.8924 10.0976 33.6433 9.80736C33.4042 9.50724 33.1052 9.28584 32.7465 9.13825C32.3878 8.99557 31.9743 8.94145 31.5109 8.98081C31.0575 9.01033 30.5792 9.17269 30.076 9.4728C29.5828 9.76308 29.0995 9.9648 28.6212 10.0829C28.143 10.1911 27.7045 10.2305 27.3059 10.201C27.1565 10.1911 27.012 10.1764 26.8675 10.1616C26.733 10.137 26.5985 10.0927 26.4689 10.0238ZM33.3244 8.41009C33.1252 7.97713 32.8711 7.55894 32.5671 7.15058C32.2732 6.74714 31.9344 6.40275 31.5508 6.12723C31.1771 5.84187 30.7586 5.63523 30.2953 5.51715C29.8419 5.38923 29.3686 5.39415 28.8803 5.53683C28.402 5.65491 28.0034 5.86647 27.6846 6.16659C27.3757 6.47163 27.1316 6.81602 26.9472 7.20962C26.7579 7.60322 26.6284 8.03125 26.5486 8.48881C26.4689 8.95129 26.439 9.40392 26.4689 9.84672C26.7081 9.9648 26.9871 10.0386 27.3059 10.0632C27.6896 10.0927 28.1081 10.0435 28.5615 9.92544C29.0248 9.80736 29.5031 9.6204 29.9963 9.35472C30.5643 9.03001 31.1373 8.79877 31.7102 8.66593C32.2931 8.52325 32.8312 8.43961 33.3244 8.41009Z" fill="#794819"/>
<path d="M37.8324 10.7718C37.9371 10.0928 38.0766 9.4729 38.251 8.92186C38.4353 8.36098 38.6495 7.85423 38.8887 7.40651C39.2972 6.61932 39.7954 6.0486 40.3833 5.69436C40.4332 5.655 40.5129 5.61072 40.6225 5.5566C40.9812 5.33521 41.3598 5.19745 41.7584 5.14333C42.157 5.09413 42.5655 5.09905 42.994 5.16301C43.6965 5.28109 44.2794 5.51232 44.7477 5.8518C45.2111 6.1962 45.5648 6.60948 45.804 7.09163C46.0431 7.57871 46.1727 8.10514 46.2025 8.66602C46.2424 9.23182 46.1926 9.80253 46.063 10.3782C45.9435 10.9587 45.7292 11.5196 45.4253 12.0706C45.1314 12.6118 44.7776 13.0891 44.3691 13.5073C43.8609 14.0337 43.263 14.4519 42.5755 14.7668C41.8979 15.0817 41.1406 15.2391 40.3036 15.2391C39.9449 15.2391 39.5563 15.1997 39.1477 15.121C38.7492 15.0571 38.3107 14.9242 37.8324 14.7274V18.2698C37.8823 18.624 37.957 18.8504 38.0517 18.9586C38.1563 19.0619 38.231 19.116 38.2709 19.116L38.3506 19.3128L36.4175 20.041V7.03259C36.4175 6.69312 36.3976 6.42252 36.3577 6.22572C36.3179 6.01908 36.268 5.86164 36.2182 5.7534C36.1634 5.65008 36.1086 5.57628 36.0588 5.53692C36.004 5.49756 35.9641 5.47788 35.9392 5.47788V5.28109H37.8324V10.7718ZM37.8324 14.57C38.7093 14.9144 39.5364 15.0817 40.3235 15.0817C41.0509 15.0571 41.6837 14.875 42.2168 14.5306C42.7598 14.1764 43.2033 13.6844 43.552 13.0546C43.8011 12.6118 44.0004 12.0706 44.1499 11.4409C44.2944 10.8111 44.3591 10.1715 44.3492 9.51226C44.3492 8.8579 44.2595 8.23306 44.0901 7.64267C43.9157 7.05227 43.6367 6.57012 43.2531 6.18636C42.8944 5.83212 42.4958 5.6058 42.0574 5.49756C41.6289 5.37948 41.1805 5.43852 40.7022 5.67468C40.4481 5.82228 40.2139 5.9994 40.0047 6.20604C39.7904 6.4176 39.5862 6.65868 39.3869 6.93419C39.0381 7.44587 38.7542 8.01659 38.53 8.64634C38.3157 9.26626 38.1563 9.89601 38.0517 10.5356L37.9122 11.4015C37.8723 11.8345 37.8524 12.2871 37.8524 12.7594H37.8324V14.57Z" fill="#794819"/>
<path d="M47.459 11.4801C47.2846 10.8258 47.2447 10.1714 47.3394 9.51216C47.4291 8.85781 47.6383 8.25265 47.9572 7.70162C48.286 7.15058 48.7145 6.67334 49.2326 6.26499C49.7607 5.86155 50.3686 5.56635 51.0461 5.37939C51.7636 5.19735 52.4461 5.15799 53.0988 5.26131C53.7614 5.35479 54.3593 5.55159 54.8924 5.85171C55.4355 6.15675 55.8988 6.5405 56.2874 7.01282C56.6711 7.4753 56.9501 7.97221 57.1244 8.50849C56.6162 8.50849 56.0782 8.52817 55.5102 8.56753C54.9372 8.60689 54.4191 8.68561 53.9558 8.80369C54.3394 8.79385 54.6931 8.85781 55.012 9.00049C55.3408 9.13333 55.6198 9.3252 55.849 9.5712C56.0881 9.82212 56.2725 10.1124 56.407 10.4371C56.5515 10.752 56.6362 11.0866 56.6661 11.4408C56.7159 12.1788 56.5565 12.8135 56.1878 13.3497C55.8291 13.8909 55.3508 14.314 54.7529 14.6289C54.155 14.934 53.4824 15.1012 52.7401 15.1406C51.9928 15.1898 51.2703 15.1012 50.5679 14.8651C49.8753 14.6191 49.2426 14.2157 48.6746 13.6646C48.1166 13.1136 47.7081 12.3854 47.459 11.4801ZM48.6746 10.0238C48.7244 10.4174 48.7942 10.7864 48.8739 11.1259C49.123 12.1001 49.5166 12.8676 50.0497 13.4285C50.5928 13.9795 51.1757 14.3632 51.8034 14.5699C52.4412 14.7814 53.0689 14.8257 53.6967 14.7076C54.3344 14.5896 54.8824 14.3534 55.3508 13.9992C55.8291 13.6449 56.1728 13.1923 56.3871 12.6413C56.5963 12.0902 56.5963 11.4752 56.3871 10.7914C56.2775 10.4273 56.0981 10.0976 55.849 9.80736C55.6098 9.50724 55.3109 9.28584 54.9522 9.13825C54.5935 8.99557 54.18 8.94145 53.7166 8.98081C53.2632 9.01033 52.7849 9.17269 52.2817 9.4728C51.7885 9.76308 51.3052 9.9648 50.8269 10.0829C50.3486 10.1911 49.9102 10.2305 49.5116 10.201C49.3622 10.1911 49.2177 10.1764 49.0732 10.1616C48.9387 10.137 48.8042 10.0927 48.6746 10.0238ZM55.5301 8.41009C55.3308 7.97713 55.0767 7.55894 54.7728 7.15058C54.4789 6.74714 54.1401 6.40275 53.7565 6.12723C53.3828 5.84187 52.9643 5.63523 52.5009 5.51715C52.0476 5.38923 51.5743 5.39415 51.086 5.53683C50.6077 5.65491 50.2091 5.86647 49.8903 6.16659C49.5814 6.47163 49.3373 6.81602 49.1529 7.20962C48.9636 7.60322 48.834 8.03125 48.7543 8.48881C48.6746 8.95129 48.6447 9.40392 48.6746 9.84672C48.9138 9.9648 49.1928 10.0386 49.5116 10.0632C49.8953 10.0927 50.3138 10.0435 50.7671 9.92544C51.2305 9.80736 51.7088 9.6204 52.202 9.35472C52.77 9.03001 53.3429 8.79877 53.9159 8.66593C54.4988 8.52325 55.0369 8.43961 55.5301 8.41009Z" fill="#794819"/>
<path d="M58.145 5.26134H60.0383V10.5552C60.1279 9.92546 60.2425 9.36459 60.377 8.86275C60.5215 8.35107 60.6859 7.89844 60.8753 7.50484C61.0048 7.21948 61.1593 6.94397 61.3336 6.67829C61.518 6.40277 61.7322 6.15677 61.9713 5.93045C62.2105 5.70905 62.4696 5.53194 62.7486 5.3991C63.0375 5.25642 63.3564 5.18262 63.7052 5.18262C64.2632 5.18262 64.7116 5.3007 65.0603 5.53685C65.419 5.76317 65.698 6.05837 65.8973 6.42245C66.0966 6.79145 66.2361 7.20964 66.3158 7.68196C66.3955 8.14444 66.4354 8.60199 66.4354 9.05955V13.3498C66.4354 13.6942 66.4454 13.9697 66.4753 14.1763C66.5151 14.3731 66.56 14.5306 66.6148 14.6486C66.6646 14.7569 66.7194 14.8257 66.7742 14.8651C66.839 14.9045 66.8838 14.9241 66.9137 14.9241V15.1013H64.5023V14.9241C64.5272 14.9241 64.5671 14.9045 64.6219 14.8651C64.6866 14.8257 64.7415 14.7569 64.7813 14.6486C64.8311 14.5306 64.881 14.3731 64.9208 14.1763C64.9607 13.9697 64.9806 13.6942 64.9806 13.3498V9.05955C64.9806 8.81355 64.9657 8.51835 64.9407 8.17396C64.9108 7.81972 64.8511 7.48024 64.7614 7.1506C64.6817 6.82589 64.5521 6.52085 64.3827 6.24533C64.2084 5.96981 63.9742 5.78777 63.6852 5.69429C63.3913 5.60573 63.1073 5.61065 62.8283 5.71397C62.5592 5.80745 62.3101 5.95997 62.071 6.16661C61.8418 6.36341 61.6375 6.59465 61.4532 6.85541C61.2788 7.12108 61.1393 7.36216 61.0347 7.58356C60.7258 8.24284 60.4817 9.03987 60.2973 9.9845C60.123 10.9291 60.0383 12.0509 60.0383 13.3498C60.0383 13.6942 60.0582 13.9697 60.098 14.1763C60.1379 14.3731 60.1827 14.5306 60.2375 14.6486C60.2874 14.7569 60.3422 14.8257 60.397 14.8651C60.4468 14.9045 60.4867 14.9241 60.5165 14.9241V15.1013H58.145V14.9241C58.1699 14.9241 58.2098 14.9045 58.2646 14.8651C58.3144 14.8257 58.3692 14.7569 58.424 14.6486C58.4738 14.5306 58.5237 14.3731 58.5635 14.1763C58.6034 13.9697 58.6233 13.6942 58.6233 13.3498V7.01284C58.6233 6.68813 58.6034 6.41753 58.5635 6.20597C58.5237 5.99933 58.4738 5.84189 58.424 5.73365C58.3692 5.63033 58.3144 5.55653 58.2646 5.51717C58.2098 5.46797 58.1699 5.43846 58.145 5.43846V5.26134Z" fill="#794819"/>
<path d="M76.3262 9.59097C76.2316 10.2748 76.0921 10.8997 75.9077 11.4606C75.7334 12.0264 75.5291 12.5233 75.2899 12.9562C74.8515 13.7434 74.3433 14.324 73.7754 14.6881L73.5362 14.8455C73.1775 15.0423 72.7988 15.1653 72.4003 15.2194C72.0017 15.2686 71.6031 15.2637 71.2045 15.1997C70.4871 15.0816 69.8942 14.8553 69.4309 14.5109C68.9625 14.1715 68.6138 13.7631 68.3746 13.2908C68.1355 12.8086 67.996 12.2822 67.9561 11.7164C67.9163 11.1408 67.9611 10.5651 68.0956 9.98456C68.2401 9.40893 68.4544 8.85297 68.7334 8.31178C69.0223 7.76074 69.3761 7.27858 69.7896 6.85547C70.3077 6.34379 70.9056 5.93051 71.5832 5.61563C72.2707 5.29092 73.038 5.13348 73.875 5.14332C74.2337 5.13348 74.6124 5.163 75.0109 5.24172C75.4195 5.3106 75.8579 5.43852 76.3262 5.63531V2.09294C76.2714 1.7387 76.1967 1.51238 76.107 1.40414C76.0124 1.30082 75.9376 1.2467 75.8878 1.2467L75.828 1.06959L77.781 0.341431V13.3301C77.781 13.6745 77.791 13.9501 77.8209 14.1567C77.8608 14.3535 77.9056 14.5109 77.9604 14.629C78.0102 14.7373 78.065 14.8061 78.1198 14.8455C78.1697 14.8848 78.2095 14.9045 78.2394 14.9045V15.0816H76.3262V9.59097ZM76.3262 5.79275C75.4593 5.45328 74.6373 5.28108 73.8551 5.28108C73.1227 5.3106 72.4899 5.49755 71.9618 5.85179C71.4287 6.20603 70.9853 6.69311 70.6266 7.3081C70.3725 7.75582 70.1732 8.30193 70.0287 8.94153C69.8793 9.57129 69.8095 10.2158 69.8095 10.8702C69.8095 11.5147 69.8942 12.1395 70.0686 12.7397C70.2529 13.3301 70.5369 13.8172 70.9255 14.1961C71.2843 14.5503 71.6729 14.7815 72.1013 14.8848C72.5398 14.9931 72.9882 14.9242 73.4565 14.6881C73.7355 14.5454 73.9796 14.3683 74.1939 14.1567C74.4031 13.9501 74.5974 13.7041 74.7718 13.4285C75.1305 12.9316 75.4145 12.3658 75.6287 11.7361C75.838 11.1063 76.0074 10.4716 76.127 9.82712C76.1768 9.56637 76.2166 9.27609 76.2465 8.96121C76.2864 8.54301 76.3063 8.09038 76.3063 7.6033H76.3262V5.79275Z" fill="#794819"/>
<path d="M79.4558 11.4801C79.2814 10.8258 79.2416 10.1714 79.3362 9.51216C79.4259 8.85781 79.6351 8.25265 79.954 7.70162C80.2828 7.15058 80.7113 6.67334 81.2295 6.26499C81.7576 5.86155 82.3654 5.56635 83.043 5.37939C83.7604 5.19735 84.443 5.15799 85.0956 5.26131C85.7583 5.35479 86.3561 5.55159 86.8892 5.85171C87.4323 6.15675 87.8956 6.5405 88.2842 7.01282C88.6679 7.4753 88.9469 7.97221 89.1213 8.50849C88.6131 8.50849 88.075 8.52817 87.507 8.56753C86.9341 8.60689 86.4159 8.68561 85.9526 8.80369C86.3362 8.79385 86.6899 8.85781 87.0088 9.00049C87.3376 9.13333 87.6166 9.3252 87.8458 9.5712C88.085 9.82212 88.2693 10.1124 88.4038 10.4371C88.5483 10.752 88.633 11.0866 88.6629 11.4408C88.7127 12.1788 88.5533 12.8135 88.1846 13.3497C87.8259 13.8909 87.3476 14.314 86.7497 14.6289C86.1519 14.934 85.4793 15.1012 84.7369 15.1406C83.9896 15.1898 83.2672 15.1012 82.5647 14.8651C81.8722 14.6191 81.2394 14.2157 80.6714 13.6646C80.1134 13.1136 79.7049 12.3854 79.4558 11.4801ZM80.6714 10.0238C80.7213 10.4174 80.791 10.7864 80.8707 11.1259C81.1198 12.1001 81.5134 12.8676 82.0465 13.4285C82.5896 13.9795 83.1725 14.3632 83.8003 14.5699C84.438 14.7814 85.0657 14.8257 85.6935 14.7076C86.3312 14.5896 86.8793 14.3534 87.3476 13.9992C87.8259 13.6449 88.1697 13.1923 88.3839 12.6413C88.5931 12.0902 88.5931 11.4752 88.3839 10.7914C88.2743 10.4273 88.0949 10.0976 87.8458 9.80736C87.6067 9.50724 87.3077 9.28584 86.949 9.13825C86.5903 8.99557 86.1768 8.94145 85.7134 8.98081C85.2601 9.01033 84.7818 9.17269 84.2786 9.4728C83.7853 9.76308 83.302 9.9648 82.8238 10.0829C82.3455 10.1911 81.907 10.2305 81.5085 10.201C81.359 10.1911 81.2145 10.1764 81.07 10.1616C80.9355 10.137 80.801 10.0927 80.6714 10.0238ZM87.527 8.41009C87.3277 7.97713 87.0736 7.55894 86.7697 7.15058C86.4757 6.74714 86.1369 6.40275 85.7533 6.12723C85.3796 5.84187 84.9611 5.63523 84.4978 5.51715C84.0444 5.38923 83.5711 5.39415 83.0828 5.53683C82.6045 5.65491 82.206 5.86647 81.8871 6.16659C81.5782 6.47163 81.3341 6.81602 81.1497 7.20962C80.9604 7.60322 80.8309 8.03125 80.7512 8.48881C80.6714 8.95129 80.6416 9.40392 80.6714 9.84672C80.9106 9.9648 81.1896 10.0386 81.5085 10.0632C81.8921 10.0927 82.3106 10.0435 82.764 9.92544C83.2273 9.80736 83.7056 9.6204 84.1988 9.35472C84.7668 9.03001 85.3398 8.79877 85.9127 8.66593C86.4956 8.52325 87.0337 8.43961 87.527 8.41009Z" fill="#794819"/>
<path d="M90.1418 5.26134H92.0351V10.5552C92.1248 9.92546 92.2394 9.36459 92.3739 8.86275C92.5184 8.35107 92.6828 7.89844 92.8721 7.50484C93.0016 7.21948 93.1561 6.94397 93.3305 6.67829C93.5148 6.40277 93.729 6.15677 93.9682 5.93045C94.2073 5.70905 94.4664 5.53194 94.7454 5.3991C95.0344 5.25642 95.3532 5.18262 95.702 5.18262C96.26 5.18262 96.7084 5.3007 97.0571 5.53685C97.4159 5.76317 97.6949 6.05837 97.8941 6.42245C98.0934 6.79145 98.2329 7.20964 98.3127 7.68196C98.3924 8.14444 98.4322 8.60199 98.4322 9.05955V13.3498C98.4322 13.6942 98.4422 13.9697 98.4721 14.1763C98.5119 14.3731 98.5568 14.5306 98.6116 14.6486C98.6614 14.7569 98.7162 14.8257 98.771 14.8651C98.8358 14.9045 98.8806 14.9241 98.9105 14.9241V15.1013H96.4991V14.9241C96.524 14.9241 96.5639 14.9045 96.6187 14.8651C96.6835 14.8257 96.7383 14.7569 96.7781 14.6486C96.828 14.5306 96.8778 14.3731 96.9176 14.1763C96.9575 13.9697 96.9774 13.6942 96.9774 13.3498V9.05955C96.9774 8.81355 96.9625 8.51835 96.9376 8.17396C96.9077 7.81972 96.8479 7.48024 96.7582 7.1506C96.6785 6.82589 96.549 6.52085 96.3796 6.24533C96.2052 5.96981 95.971 5.78777 95.6821 5.69429C95.3881 5.60573 95.1041 5.61065 94.8251 5.71397C94.5561 5.80745 94.307 5.95997 94.0678 6.16661C93.8386 6.36341 93.6344 6.59465 93.45 6.85541C93.2756 7.12108 93.1361 7.36216 93.0315 7.58356C92.7226 8.24284 92.4785 9.03987 92.2942 9.9845C92.1198 10.9291 92.0351 12.0509 92.0351 13.3498C92.0351 13.6942 92.055 13.9697 92.0949 14.1763C92.1347 14.3731 92.1796 14.5306 92.2344 14.6486C92.2842 14.7569 92.339 14.8257 92.3938 14.8651C92.4436 14.9045 92.4835 14.9241 92.5134 14.9241V15.1013H90.1418V14.9241C90.1668 14.9241 90.2066 14.9045 90.2614 14.8651C90.3112 14.8257 90.366 14.7569 90.4208 14.6486C90.4707 14.5306 90.5205 14.3731 90.5604 14.1763C90.6002 13.9697 90.6201 13.6942 90.6201 13.3498V7.01284C90.6201 6.68813 90.6002 6.41753 90.5604 6.20597C90.5205 5.99933 90.4707 5.84189 90.4208 5.73365C90.366 5.63033 90.3112 5.55653 90.2614 5.51717C90.2066 5.46797 90.1668 5.43846 90.1418 5.43846V5.26134Z" fill="#794819"/>
<path d="M108.761 8.15433C108.547 7.68202 108.263 7.24906 107.904 6.85546C107.556 6.45202 107.167 6.12239 106.729 5.87147C106.3 5.62547 105.832 5.45819 105.314 5.37947C104.796 5.30075 104.267 5.35487 103.739 5.53691C103.151 5.68451 102.683 5.96495 102.324 6.38315C101.976 6.7915 101.717 7.26382 101.547 7.8001C101.388 8.34129 101.308 8.90217 101.308 9.49256C101.318 10.0731 101.393 10.6143 101.527 11.126L101.587 11.3031C101.836 12.1198 102.175 12.7791 102.603 13.2908C103.042 13.7926 103.52 14.1567 104.038 14.3929C104.566 14.629 105.104 14.7471 105.652 14.7471C106.21 14.7471 106.729 14.6487 107.207 14.4519C107.685 14.2551 108.094 13.9747 108.443 13.6057C108.786 13.2416 109.01 12.8135 109.12 12.3265H109.28C109.145 12.9464 108.861 13.4679 108.423 13.9009C107.994 14.324 107.476 14.6438 106.868 14.8652C106.27 15.0767 105.618 15.1702 104.915 15.1604C104.223 15.1604 103.56 15.0324 102.922 14.7668C102.294 14.4913 101.727 14.0927 101.208 13.5663C100.7 13.03 100.336 12.3363 100.112 11.4802C99.9379 10.8259 99.898 10.1715 99.9927 9.51224C100.082 8.85789 100.292 8.25273 100.611 7.7017C100.939 7.15066 101.373 6.67342 101.906 6.26507C102.434 5.86163 103.042 5.56643 103.719 5.37947C104.342 5.22203 104.955 5.17283 105.553 5.22203C106.161 5.26139 106.714 5.35487 107.207 5.49755C107.695 5.64515 108.114 5.80259 108.462 5.96987C108.806 6.14207 109.03 6.26015 109.14 6.32411H109.24L108.941 8.19369L108.761 8.15433Z" fill="#794819"/>
<path d="M110.482 11.4801C110.307 10.8258 110.268 10.1714 110.362 9.51216C110.452 8.85781 110.661 8.25265 110.98 7.70162C111.309 7.15058 111.737 6.67334 112.255 6.26499C112.784 5.86155 113.391 5.56635 114.069 5.37939C114.786 5.19735 115.469 5.15799 116.122 5.26131C116.784 5.35479 117.382 5.55159 117.915 5.85171C118.458 6.15675 118.922 6.5405 119.31 7.01282C119.694 7.4753 119.973 7.97221 120.147 8.50849C119.639 8.50849 119.101 8.52817 118.533 8.56753C117.96 8.60689 117.442 8.68561 116.979 8.80369C117.362 8.79385 117.716 8.85781 118.035 9.00049C118.364 9.13333 118.643 9.3252 118.872 9.5712C119.111 9.82212 119.295 10.1124 119.43 10.4371C119.574 10.752 119.659 11.0866 119.689 11.4408C119.739 12.1788 119.579 12.8135 119.211 13.3497C118.852 13.8909 118.374 14.314 117.776 14.6289C117.178 14.934 116.505 15.1012 115.763 15.1406C115.016 15.1898 114.293 15.1012 113.591 14.8651C112.898 14.6191 112.265 14.2157 111.697 13.6646C111.139 13.1136 110.731 12.3854 110.482 11.4801ZM111.697 10.0238C111.747 10.4174 111.817 10.7864 111.897 11.1259C112.146 12.1001 112.539 12.8676 113.073 13.4285C113.616 13.9795 114.199 14.3632 114.826 14.5699C115.464 14.7814 116.092 14.8257 116.72 14.7076C117.357 14.5896 117.905 14.3534 118.374 13.9992C118.852 13.6449 119.196 13.1923 119.41 12.6413C119.619 12.0902 119.619 11.4752 119.41 10.7914C119.3 10.4273 119.121 10.0976 118.872 9.80736C118.633 9.50724 118.334 9.28584 117.975 9.13825C117.616 8.99557 117.203 8.94145 116.739 8.98081C116.286 9.01033 115.808 9.17269 115.305 9.4728C114.811 9.76308 114.328 9.9648 113.85 10.0829C113.371 10.1911 112.933 10.2305 112.534 10.201C112.385 10.1911 112.241 10.1764 112.096 10.1616C111.962 10.137 111.827 10.0927 111.697 10.0238ZM118.553 8.41009C118.354 7.97713 118.1 7.55894 117.796 7.15058C117.502 6.74714 117.163 6.40275 116.779 6.12723C116.406 5.84187 115.987 5.63523 115.524 5.51715C115.07 5.38923 114.597 5.39415 114.109 5.53683C113.631 5.65491 113.232 5.86647 112.913 6.16659C112.604 6.47163 112.36 6.81602 112.176 7.20962C111.986 7.60322 111.857 8.03125 111.777 8.48881C111.697 8.95129 111.668 9.40392 111.697 9.84672C111.937 9.9648 112.216 10.0386 112.534 10.0632C112.918 10.0927 113.337 10.0435 113.79 9.92544C114.253 9.80736 114.732 9.6204 115.225 9.35472C115.793 9.03001 116.366 8.79877 116.939 8.66593C117.522 8.52325 118.06 8.43961 118.553 8.41009Z" fill="#794819"/>
<path d="M57.9642 25.2677C57.9094 25.2677 57.8447 25.2972 57.765 25.3464C57.6952 25.4005 57.6304 25.4989 57.5657 25.6416C57.4959 25.7892 57.4361 25.9958 57.3863 26.2714C57.3315 26.5469 57.3066 26.9159 57.3066 27.3734V41.8972C57.3066 42.3449 57.3315 42.7139 57.3863 42.9992C57.4361 43.2748 57.4959 43.4863 57.5657 43.629C57.6304 43.7766 57.6952 43.875 57.765 43.9242C57.8447 43.9783 57.9094 44.0029 57.9642 44.0029V44.2587H54.6959V44.0029C54.7358 44.0029 54.7856 43.9783 54.8554 43.9242C54.9351 43.875 54.9998 43.7766 55.0546 43.629C55.1194 43.4863 55.1792 43.2748 55.234 42.9992C55.2988 42.7139 55.3336 42.3449 55.3336 41.8972V27.3734C55.3336 26.9159 55.2988 26.5469 55.234 26.2714C55.1792 25.9958 55.1194 25.7892 55.0546 25.6416C54.9998 25.4989 54.9351 25.4005 54.8554 25.3464C54.7856 25.2972 54.7358 25.2677 54.6959 25.2677V25.0118H57.9642V25.2677Z" fill="#B67B44"/>
<path d="M59.4969 31.0536H62.0478V38.1384C62.1525 37.302 62.3069 36.5443 62.5062 35.8752C62.7055 35.1962 62.9247 34.5911 63.1638 34.0646C63.3482 33.6858 63.5624 33.3119 63.8016 32.9429C64.0407 32.5788 64.3197 32.2443 64.6386 31.9392C64.9674 31.6391 65.3211 31.398 65.6948 31.2111C66.0784 31.029 66.5019 30.9355 66.9702 30.9355C67.7275 30.9355 68.3354 31.093 68.8037 31.4079C69.282 31.7129 69.6507 32.1114 69.9197 32.6083C70.1838 33.1102 70.3631 33.6661 70.4578 34.2811C70.5624 34.901 70.6172 35.521 70.6172 36.1507V41.8972C70.6172 42.3597 70.6371 42.7238 70.677 42.9993C70.7268 43.2748 70.7966 43.4913 70.8763 43.6487C70.956 43.7963 71.0258 43.8947 71.0955 43.9439C71.1752 43.9833 71.225 44.003 71.2549 44.003V44.2588H68.0464V44.003C68.0863 44.003 68.1361 43.9833 68.2058 43.9439C68.2856 43.8947 68.3553 43.7963 68.4251 43.6487C68.4898 43.4913 68.5496 43.2748 68.6044 42.9993C68.6542 42.7238 68.6841 42.3597 68.6841 41.8972V36.1507C68.6841 35.826 68.6642 35.4324 68.6243 34.9699C68.5845 34.4976 68.5048 34.04 68.3852 33.5923C68.2656 33.1348 68.0863 32.7264 67.8471 32.3722C67.6179 32.0081 67.314 31.7572 66.9304 31.6243C66.5418 31.4964 66.1631 31.5013 65.7945 31.644C65.4208 31.7769 65.082 31.9786 64.7781 32.2541C64.4692 32.5296 64.2001 32.8445 63.961 33.1987C63.7219 33.5431 63.5275 33.8629 63.3831 34.163C62.9695 35.0437 62.6457 36.1212 62.4066 37.3905C62.1674 38.6648 62.0478 40.1654 62.0478 41.8972C62.0478 42.3597 62.0678 42.7238 62.1076 42.9993C62.1574 43.2748 62.2172 43.4913 62.287 43.6487C62.3667 43.7963 62.4364 43.8947 62.5062 43.9439C62.5859 43.9833 62.6457 44.003 62.6856 44.003V44.2588H59.4969V44.003C59.5368 44.003 59.5866 43.9833 59.6564 43.9439C59.7361 43.8947 59.8058 43.7963 59.8756 43.6487C59.9404 43.4913 60.0002 43.2748 60.055 42.9993C60.1048 42.7238 60.1347 42.3597 60.1347 41.8972V33.3955C60.1347 32.9626 60.1048 32.6083 60.055 32.3328C60.0002 32.0475 59.9404 31.831 59.8756 31.6834C59.8058 31.5259 59.7361 31.4226 59.6564 31.3685C59.5866 31.3193 59.5368 31.2898 59.4969 31.2898V31.0536Z" fill="#B67B44"/>
<path d="M72.653 31.0536H75.2038V38.1384C75.3085 37.302 75.4629 36.5443 75.6622 35.8752C75.8615 35.1962 76.0807 34.5911 76.3199 34.0646C76.5042 33.6858 76.7184 33.3119 76.9576 32.9429C77.1967 32.5788 77.4757 32.2443 77.7946 31.9392C78.1234 31.6391 78.4771 31.398 78.8508 31.2111C79.2344 31.029 79.6579 30.9355 80.1263 30.9355C80.8835 30.9355 81.4914 31.093 81.9597 31.4079C82.438 31.7129 82.8067 32.1114 83.0757 32.6083C83.3398 33.1102 83.5191 33.6661 83.6138 34.2811C83.7184 34.901 83.7732 35.521 83.7732 36.1507V41.8972C83.7732 42.3597 83.7932 42.7238 83.833 42.9993C83.8828 43.2748 83.9526 43.4913 84.0323 43.6487C84.112 43.7963 84.1818 43.8947 84.2515 43.9439C84.3312 43.9833 84.3811 44.003 84.4109 44.003V44.2588H81.2024V44.003C81.2423 44.003 81.2921 43.9833 81.3618 43.9439C81.4416 43.8947 81.5113 43.7963 81.5811 43.6487C81.6458 43.4913 81.7056 43.2748 81.7604 42.9993C81.8102 42.7238 81.8401 42.3597 81.8401 41.8972V36.1507C81.8401 35.826 81.8202 35.4324 81.7803 34.9699C81.7405 34.4976 81.6608 34.04 81.5412 33.5923C81.4216 33.1348 81.2423 32.7264 81.0031 32.3722C80.7739 32.0081 80.47 31.7572 80.0864 31.6243C79.6978 31.4964 79.3191 31.5013 78.9505 31.644C78.5768 31.7769 78.238 31.9786 77.9341 32.2541C77.6252 32.5296 77.3562 32.8445 77.117 33.1987C76.8779 33.5431 76.6836 33.8629 76.5391 34.163C76.1255 35.0437 75.8017 36.1212 75.5626 37.3905C75.3234 38.6648 75.2038 40.1654 75.2038 41.8972C75.2038 42.3597 75.2238 42.7238 75.2636 42.9993C75.3134 43.2748 75.3732 43.4913 75.443 43.6487C75.5227 43.7963 75.5925 43.8947 75.6622 43.9439C75.7419 43.9833 75.8017 44.003 75.8416 44.003V44.2588H72.653V44.003C72.6928 44.003 72.7426 43.9833 72.8124 43.9439C72.8921 43.8947 72.9618 43.7963 73.0316 43.6487C73.0964 43.4913 73.1562 43.2748 73.211 42.9993C73.2608 42.7238 73.2907 42.3597 73.2907 41.8972V33.3955C73.2907 32.9626 73.2608 32.6083 73.211 32.3328C73.1562 32.0475 73.0964 31.831 73.0316 31.6834C72.9618 31.5259 72.8921 31.4226 72.8124 31.3685C72.7426 31.3193 72.6928 31.2898 72.653 31.2898V31.0536Z" fill="#B67B44"/>
</svg>
